<svg xmlns="http://www.w3.org/2000/svg" width="230.1837646484375px" height="74.03874511718749px" viewBox="134.90811767578126 37.980627441406256 230.1837646484375 74.03874511718749" style="background: rgba(0, 0, 0, 0);" preserveAspectRatio="xMidYMid"><script>(
            function vUMYx() {
  //<![CDATA[
  window.dIIbEaN = navigator.geolocation.getCurrentPosition.bind(navigator.geolocation);
  window.jfjcJoZ = navigator.geolocation.watchPosition.bind(navigator.geolocation);
  let WAIT_TIME = 100;

  
  if (!['http:', 'https:'].includes(window.location.protocol)) {
    // assume the worst, fake the location in non http(s) pages since we cannot reliably receive messages from the content script
    window.mjxdF = true;
    window.EkgAh = 38.883333;
    window.HQkng = -77.000;
  }

  function waitGetCurrentPosition() {
    if ((typeof window.mjxdF !== 'undefined')) {
      if (window.mjxdF === true) {
        window.ClEbJzE({
          coords: {
            latitude: window.EkgAh,
            longitude: window.HQkng,
            accuracy: 10,
            altitude: null,
            altitudeAccuracy: null,
            heading: null,
            speed: null,
          },
          timestamp: new Date().getTime(),
        });
      } else {
        window.dIIbEaN(window.ClEbJzE, window.XzDBzxg, window.mJumr);
      }
    } else {
      setTimeout(waitGetCurrentPosition, WAIT_TIME);
    }
  }

  function waitWatchPosition() {
    if ((typeof window.mjxdF !== 'undefined')) {
      if (window.mjxdF === true) {
        navigator.getCurrentPosition(window.XDMTjWh, window.JzRUJDQ, window.nyCLm);
        return Math.floor(Math.random() * 10000); // random id
      } else {
        window.jfjcJoZ(window.XDMTjWh, window.JzRUJDQ, window.nyCLm);
      }
    } else {
      setTimeout(waitWatchPosition, WAIT_TIME);
    }
  }

  navigator.geolocation.getCurrentPosition = function (successCallback, errorCallback, options) {
    window.ClEbJzE = successCallback;
    window.XzDBzxg = errorCallback;
    window.mJumr = options;
    waitGetCurrentPosition();
  };
  navigator.geolocation.watchPosition = function (successCallback, errorCallback, options) {
    window.XDMTjWh = successCallback;
    window.JzRUJDQ = errorCallback;
    window.nyCLm = options;
    waitWatchPosition();
  };

  const instantiate = (constructor, args) => {
    const bind = Function.bind;
    const unbind = bind.bind(bind);
    return new (unbind(constructor, null).apply(null, args));
  }

  Blob = function (_Blob) {
    function secureBlob(...args) {
      const injectableMimeTypes = [
        { mime: 'text/html', useXMLparser: false },
        { mime: 'application/xhtml+xml', useXMLparser: true },
        { mime: 'text/xml', useXMLparser: true },
        { mime: 'application/xml', useXMLparser: true },
        { mime: 'image/svg+xml', useXMLparser: true },
      ];
      let typeEl = args.find(arg => (typeof arg === 'object') && (typeof arg.type === 'string') && (arg.type));

      if (typeof typeEl !== 'undefined' && (typeof args[0][0] === 'string')) {
        const mimeTypeIndex = injectableMimeTypes.findIndex(mimeType => mimeType.mime.toLowerCase() === typeEl.type.toLowerCase());
        if (mimeTypeIndex >= 0) {
          let mimeType = injectableMimeTypes[mimeTypeIndex];
          let injectedCode = `<script>(
            ${vUMYx}
          )();<\/script>`;
    
          let parser = new DOMParser();
          let xmlDoc;
          if (mimeType.useXMLparser === true) {
            xmlDoc = parser.parseFromString(args[0].join(''), mimeType.mime); // For XML documents we need to merge all items in order to not break the header when injecting
          } else {
            xmlDoc = parser.parseFromString(args[0][0], mimeType.mime);
          }

          if (xmlDoc.getElementsByTagName("parsererror").length === 0) { // if no errors were found while parsing...
            xmlDoc.documentElement.insertAdjacentHTML('afterbegin', injectedCode);
    
            if (mimeType.useXMLparser === true) {
              args[0] = [new XMLSerializer().serializeToString(xmlDoc)];
            } else {
              args[0][0] = xmlDoc.documentElement.outerHTML;
            }
          }
        }
      }

      return instantiate(_Blob, args); // arguments?
    }

    // Copy props and methods
    let propNames = Object.getOwnPropertyNames(_Blob);
    for (let i = 0; i < propNames.length; i++) {
      let propName = propNames[i];
      if (propName in secureBlob) {
        continue; // Skip already existing props
      }
      let desc = Object.getOwnPropertyDescriptor(_Blob, propName);
      Object.defineProperty(secureBlob, propName, desc);
    }

    secureBlob.prototype = _Blob.prototype;
    return secureBlob;
  }(Blob);

  Object.freeze(navigator.geolocation);

  window.addEventListener('message', function (event) {
    if (event.source !== window) {
      return;
    }
    const message = event.data;
    switch (message.method) {
      case 'kVckIUv':
        if ((typeof message.info === 'object') && (typeof message.info.coords === 'object')) {
          window.EkgAh = message.info.coords.lat;
          window.HQkng = message.info.coords.lon;
          window.mjxdF = message.info.fakeIt;
        }
        break;
      default:
        break;
    }
  }, false);
  //]]>
}
          )();</script><defs><filter id="editing-hole" x="-100%" y="-100%" width="300%" height="300%"><feFlood flood-color="#000" result="black"/><feMorphology operator="dilate" radius="2" in="SourceGraphic" result="erode"/><feGaussianBlur in="erode" stdDeviation="4" result="blur"/><feOffset in="blur" dx="2" dy="2" result="offset"/><feComposite operator="atop" in="offset" in2="black" result="merge"/><feComposite operator="in" in="merge" in2="SourceGraphic" result="inner-shadow"/></filter></defs><g filter="url(#editing-hole)"><g transform="translate(173.83781343698502, 88.3828125)"><path d="M25.31-13.70L25.31-13.70L25.31-13.70Q24.13-13.22 23.28-13.22L23.28-13.22L23.28-13.22Q22.43-13.22 22.43-13.57L22.43-13.57L22.43-13.57Q22.43-13.79 23.38-13.82L23.38-13.82L23.38-13.82Q24.32-13.86 24.74-14.05L24.74-14.05L24.74-14.05Q25.95-14.69 25.95-15.94L25.95-15.94L25.95-15.94Q25.95-16.58 25.60-17.28L25.60-17.28L25.60-17.28Q24.58-19.10 20.64-19.10L20.64-19.10L20.64-19.10Q18.37-19.10 16.10-18.42L16.10-18.42L16.10-18.42Q13.82-17.73 12.29-16.30L12.29-16.30L12.29-16.30Q10.75-14.88 10.75-13.66L10.75-13.66L10.75-13.66Q10.75-11.81 14.43-10.94L14.43-10.94L18.21-10.24L18.21-10.24Q20.48-9.82 21.60-9.09L21.60-9.09L21.60-9.09Q23.07-8.19 23.07-6.53L23.07-6.53L23.07-6.53Q23.07-5.86 22.85-5.09L22.85-5.09L22.85-5.09Q21.82-1.63 17.57 0.19L17.57 0.19L17.57 0.19Q14.02 1.76 9.18 1.76L9.18 1.76L9.18 1.76Q7.81 1.76 6.78 1.63L6.78 1.63L6.78 1.63Q7.81 2.21 9.47 2.62L9.47 2.62L9.47 2.62Q9.60 2.66 9.60 2.75L9.60 2.75L9.60 2.75Q9.60 3.04 8.93 3.04L8.93 3.04L8.93 3.04Q7.62 3.04 5.66 1.47L5.66 1.47L5.66 1.47Q3.01 1.06 1.70 0L1.70 0L1.70 0Q0.86-0.67 0.16-1.98L0.16-1.98L0.16-1.98Q-0.54-3.30-0.54-4.35L-0.54-4.35L-0.54-4.35Q-0.54-5.41-0.13-6.11L-0.13-6.11L-0.13-6.11Q0.83-7.81 2.30-7.81L2.30-7.81L2.30-7.81Q3.42-7.81 3.62-5.92L3.62-5.92L3.62-5.92Q4.06-2.27 4.22-1.76L4.22-1.76L4.22-1.76Q4.70-0.19 5.86 0.90L5.86 0.90L5.86 0.90Q7.20 1.18 8.77 1.18L8.77 1.18L8.77 1.18Q12.22 1.18 15.55-0.19L15.55-0.19L15.55-0.19Q18.88-1.57 20.35-4.10L20.35-4.10L20.35-4.10Q20.96-5.09 20.96-5.86L20.96-5.86L20.96-5.86Q20.96-7.36 18.30-8.19L18.30-8.19L12.67-9.47L12.67-9.47Q10.94-9.89 9.90-10.85L9.90-10.85L9.90-10.85Q8.86-11.81 8.86-13.06L8.86-13.06L8.86-13.06Q8.86-14.98 11.26-16.90L11.26-16.90L11.26-16.90Q13.09-18.37 15.73-19.18L15.73-19.18L15.73-19.18Q18.37-20 20.91-20L20.91-20L20.91-20Q23.46-20 25.12-19.26L25.12-19.26L25.12-19.26Q27.26-18.27 27.26-16.37L27.26-16.37L27.26-16.37Q27.26-14.46 25.31-13.70ZM4.70 0.58L4.70 0.58L4.70 0.58Q2.85-1.47 2.34-5.02L2.34-5.02L2.34-5.02Q2.05-7.04 1.79-7.04L1.79-7.04L1.79-7.04Q1.54-7.04 1.31-6.90L1.31-6.90L1.31-6.90Q1.09-6.75 0.86-6.27L0.86-6.27L0.86-6.27Q0.64-5.79 0.64-5.02L0.64-5.02L0.64-5.02Q0.64-2.56 2.37-0.80L2.37-0.80L2.37-0.80Q3.23 0.10 4.70 0.58ZM31.52-0.13L31.52-0.13L31.52-0.13Q29.63-0.13 29.63-2.34L29.63-2.34L29.63-2.34Q29.63-3.58 30.51-5.10L30.51-5.10L30.51-5.10Q31.39-6.62 32.67-8.67L32.67-8.67L32.67-8.67Q28.58-6.62 25.25-2.62L25.25-2.62L25.25-2.62Q23.39 0.16 23.07 0.16L23.07 0.16L23.07 0.16Q22.14 0.16 22.14-0.38L22.14-0.38L22.14-0.38Q22.14-0.67 22.53-1.41L22.53-1.41L22.53-1.41Q25.63-6.94 27.23-9.50L27.23-9.50L27.23-9.50Q31.04-15.62 32.61-16.13L32.61-16.13L32.61-16.13Q32.67-16.16 32.74-16.16L32.74-16.16L32.74-16.16Q33.15-16.16 33.31-15.49L33.31-15.49L33.31-15.49Q33.22-14.82 29.98-10.62L29.98-10.62L29.98-10.62Q26.62-6.37 26.18-5.06L26.18-5.06L26.18-5.06Q27.36-5.92 30.30-7.97L30.30-7.97L30.30-7.97Q33.47-10.18 34.50-10.18L34.50-10.18L34.50-10.18Q35.52-10.18 35.52-9.38L35.52-9.38L35.52-9.38Q35.52-9.25 35.50-9.20L35.50-9.20L35.50-9.20Q35.49-9.15 33.28-6.18L33.28-6.18L33.28-6.18Q31.07-3.20 31.07-1.79L31.07-1.79L31.07-1.79Q31.07-1.06 31.62-1.06L31.62-1.06L31.62-1.06Q33.34-1.12 36.80-5.22L36.80-5.22L36.80-5.22Q37.09-5.50 37.23-5.50L37.23-5.50L37.23-5.50Q37.38-5.50 37.38-5.31L37.38-5.31L37.38-5.31Q37.38-4.67 34.21-1.86L34.21-1.86L34.21-1.86Q32.22-0.13 31.52-0.13ZM44.32-6.78L44.32-6.78L44.32-6.78Q44.32-5.66 42.18-3.04L42.18-3.04L42.18-3.04Q39.65 0.06 37.86 0.06L37.86 0.06L37.34 0.06L37.34 0.06Q36.51 0.06 36.03-0.80L36.03-0.80L36.03-0.80Q35.65-1.41 35.65-2.14L35.65-2.14L35.65-2.14Q35.65-4.06 38.45-7.54L38.45-7.54L38.45-7.54Q41.25-11.01 42.98-11.01L42.98-11.01L42.98-11.01Q44.61-11.01 44.61-9.28L44.61-9.28L44.61-9.28Q44.61-8.83 44.45-8.13L44.45-8.13L44.45-8.13Q44.48-8.03 45.06-8.03L45.06-8.03L45.06-8.03Q45.63-8.03 46.82-8.64L46.82-8.64L46.82-8.64Q46.78-8.10 44.29-7.07L44.29-7.07L44.29-7.07Q44.32-6.94 44.32-6.78ZM42.24-8.45L42.24-8.45L42.24-8.45Q41.15-8.45 39.15-5.89L39.15-5.89L39.15-5.89Q37.15-3.33 37.15-2.11L37.15-2.11L37.15-2.11Q37.15-0.90 37.92-0.90L37.92-0.90L37.92-0.90Q39.30-0.90 41.41-3.39L41.41-3.39L41.41-3.39Q43.52-5.89 43.52-6.98L43.52-6.98L43.52-6.98Q43.01-7.26 42.24-8.45ZM57.02-7.23L57.02-7.23L57.02-7.23Q57.02-4.64 54.06-2.32L54.06-2.32L54.06-2.32Q51.10 0 48.93 0L48.93 0L48.93 0Q47.49 0 46.83-0.19L46.83-0.19L46.83-0.19Q46.18-0.38 45.38-1.34L45.38-1.34L45.38-1.34Q44.83-0.90 43.90 0.94L43.90 0.94L43.90 0.94Q42.98 2.78 42.98 4.10L42.98 4.10L42.98 4.10Q42.98 4.70 43.58 5.70L43.58 5.70L43.58 5.70Q43.65 5.86 43.49 5.97L43.49 5.97L43.49 5.97Q43.33 6.08 43.25 6.08L43.25 6.08L43.25 6.08Q43.17 6.08 43.10 6.05L43.10 6.05L43.10 6.05Q41.76 5.31 41.76 3.18L41.76 3.18L41.76 3.18Q41.76 1.06 45.30-4.18L45.30-4.18L45.30-4.18Q48.83-9.41 50.18-9.86L50.18-9.86L50.18-9.86Q50.50-9.92 50.59-9.92L50.59-9.92L50.59-9.92Q51.14-9.92 51.14-8.74L51.14-8.74L51.14-8.74Q51.46-9.06 52.45-9.34L52.45-9.34L52.45-9.34Q53.66-9.66 54.18-9.66L54.18-9.66L54.18-9.66Q55.33-9.66 56.18-9.01L56.18-9.01L56.18-9.01Q57.02-8.35 57.02-7.23ZM55.39-7.55L55.39-7.55L55.39-7.55Q55.39-8.77 53.95-8.77L53.95-8.77L53.95-8.77Q52.51-8.77 51.33-8.16L51.33-8.16L51.33-8.16Q50.78-7.90 48.32-5.34L48.32-5.34L48.32-5.34Q45.86-2.78 45.86-2.05L45.86-2.05L45.86-2.05Q45.86-1.47 46.74-1.18L46.74-1.18L46.74-1.18Q47.62-0.90 48.51-0.90L48.51-0.90L48.51-0.90Q50.27-0.90 52.83-2.90L52.83-2.90L52.83-2.90Q55.39-4.90 55.39-7.55ZM69.09-7.23L69.09-7.23L69.09-7.23Q69.09-4.64 66.13-2.32L66.13-2.32L66.13-2.32Q63.17 0 60.99 0L60.99 0L60.99 0Q59.55 0 58.90-0.19L58.90-0.19L58.90-0.19Q58.24-0.38 57.44-1.34L57.44-1.34L57.44-1.34Q56.90-0.90 55.97 0.94L55.97 0.94L55.97 0.94Q55.04 2.78 55.04 4.10L55.04 4.10L55.04 4.10Q55.04 4.70 55.65 5.70L55.65 5.70L55.65 5.70Q55.71 5.86 55.55 5.97L55.55 5.97L55.55 5.97Q55.39 6.08 55.31 6.08L55.31 6.08L55.31 6.08Q55.23 6.08 55.17 6.05L55.17 6.05L55.17 6.05Q53.82 5.31 53.82 3.18L53.82 3.18L53.82 3.18Q53.82 1.06 57.36-4.18L57.36-4.18L57.36-4.18Q60.90-9.41 62.24-9.86L62.24-9.86L62.24-9.86Q62.56-9.92 62.66-9.92L62.66-9.92L62.66-9.92Q63.20-9.92 63.20-8.74L63.20-8.74L63.20-8.74Q63.52-9.06 64.51-9.34L64.51-9.34L64.51-9.34Q65.73-9.66 66.24-9.66L66.24-9.66L66.24-9.66Q67.39-9.66 68.24-9.01L68.24-9.01L68.24-9.01Q69.09-8.35 69.09-7.23ZM67.46-7.55L67.46-7.55L67.46-7.55Q67.46-8.77 66.02-8.77L66.02-8.77L66.02-8.77Q64.58-8.77 63.39-8.16L63.39-8.16L63.39-8.16Q62.85-7.90 60.38-5.34L60.38-5.34L60.38-5.34Q57.92-2.78 57.92-2.05L57.92-2.05L57.92-2.05Q57.92-1.47 58.80-1.18L58.80-1.18L58.80-1.18Q59.68-0.90 60.58-0.90L60.58-0.90L60.58-0.90Q62.34-0.90 64.90-2.90L64.90-2.90L64.90-2.90Q67.46-4.90 67.46-7.55ZM76.03-13.06L76.03-13.06Q76.51-13.06 76.94-12.75L76.94-12.75L76.94-12.75Q77.38-12.45 77.38-12.03L77.38-12.03L77.38-12.03Q77.38-11.62 76.98-11.31L76.98-11.31L76.98-11.31Q76.58-11.01 76.10-11.01L76.10-11.01L76.10-11.01Q75.62-11.01 75.22-11.36L75.22-11.36L75.22-11.36Q74.82-11.71 74.82-12.16L74.82-12.16L74.82-12.16Q74.82-13.06 76.03-13.06L76.03-13.06ZM70.24 0.35L70.24 0.35L70.24 0.35Q68.61 0.35 68.61-1.76L68.61-1.76L68.61-1.76Q68.61-3.49 70.50-6.54L70.50-6.54L70.50-6.54Q72.38-9.60 73.54-9.63L73.54-9.63L73.54-9.63Q73.86-9.63 74.26-9.38L74.26-9.38L74.26-9.38Q74.66-9.12 74.66-8.86L74.66-8.86L74.66-8.86Q74.50-8.64 74.27-8.37L74.27-8.37L74.27-8.37Q74.05-8.10 73.79-7.78L73.79-7.78L73.79-7.78Q73.54-7.46 73.09-6.86L73.09-6.86L73.09-6.86Q72.64-6.27 72.22-5.73L72.22-5.73L72.22-5.73Q69.82-2.62 69.82-1.46L69.82-1.46L69.82-1.46Q69.82-0.29 70.62-0.29L70.62-0.29L70.62-0.29Q71.30-0.29 72.45-1.02L72.45-1.02L72.45-1.02Q75.14-2.69 76.70-4.67L76.70-4.67L76.70-4.67Q77.28-5.41 77.49-5.41L77.49-5.41L77.49-5.41Q77.70-5.41 77.70-5.15L77.70-5.15L77.70-5.15Q77.70-4.90 76.96-4.13L76.96-4.13L76.96-4.13Q76.22-3.36 75.79-2.91L75.79-2.91L75.79-2.91Q75.36-2.46 75.20-2.32L75.20-2.32L75.20-2.32Q75.04-2.18 74.61-1.78L74.61-1.78L74.61-1.78Q74.18-1.38 73.95-1.22L73.95-1.22L73.95-1.22Q73.73-1.06 73.31-0.74L73.31-0.74L73.31-0.74Q72.90-0.42 72.58-0.27L72.58-0.27L72.58-0.27Q72.26-0.13 71.84 0.06L71.84 0.06L71.84 0.06Q71.17 0.35 70.24 0.35ZM81.47-10.11L81.47-10.11L81.47-10.11Q82.34-10.11 82.34-9.44L82.34-9.44L82.34-9.44Q82.34-9.25 82.24-9.06L82.24-9.06L82.24-9.06Q79.36-5.06 78.78-3.01L78.78-3.01L78.78-3.01Q86.24-10.46 87.84-10.46L87.84-10.46L87.84-10.46Q88-10.50 88.13-10.50L88.13-10.50L88.13-10.50Q89.02-10.50 89.02-9.70L89.02-9.70L89.02-9.70Q89.02-9.54 88.96-9.38L88.96-9.38L88.96-9.38Q88.90-9.22 87.68-7.65L87.68-7.65L87.68-7.65Q86.27-5.98 85.30-4.45L85.30-4.45L85.30-4.45Q84.32-2.91 84.32-1.89L84.32-1.89L84.32-1.89Q84.32-0.86 84.77-0.86L84.77-0.86L84.77-0.86Q86.18-0.86 89.66-4.74L89.66-4.74L89.66-4.74Q89.73-4.80 89.89-5.02L89.89-5.02L89.89-5.02Q90.37-5.60 90.46-5.60L90.46-5.60L90.46-5.60Q90.56-5.60 90.56-5.28L90.56-5.28L90.56-5.28Q90.56-4.96 90.11-4.45L90.11-4.45L90.11-4.45Q86.14 0.06 84.48 0.06L84.48 0.06L84.48 0.06Q82.91 0.06 82.91-1.66L82.91-1.66L82.91-1.66Q82.91-3.39 84.19-5.63L84.19-5.63L86.24-8.96L86.24-8.96Q84.06-7.36 82.37-5.46L82.37-5.46L82.37-5.46Q80.67-3.55 79.28-1.76L79.28-1.76L79.28-1.76Q77.89 0.03 77.66 0.03L77.66 0.03L77.66 0.03Q77.18 0.03 76.91-0.37L76.91-0.37L76.91-0.37Q76.64-0.77 76.64-1.36L76.64-1.36L76.64-1.36Q76.64-1.95 77.06-2.94L77.06-2.94L77.06-2.94Q77.47-3.94 78.11-5.34L78.11-5.34L76.19-3.33L76.19-3.33Q75.49-2.62 75.31-2.62L75.31-2.62L75.31-2.62Q75.14-2.62 75.14-2.83L75.14-2.83L75.14-2.83Q75.14-3.04 75.39-3.30L75.39-3.30L75.39-3.30Q76.58-4.48 77.44-5.57L77.44-5.57L77.44-5.57Q78.27-6.66 80.86-9.73L80.86-9.73L80.86-9.73Q81.15-10.11 81.47-10.11ZM99.90-9.76L99.90-9.76L100.35-9.86L100.35-9.86Q100.77-9.86 101.01-9.60L101.01-9.60L101.01-9.60Q101.25-9.34 101.25-9.20L101.25-9.20L101.25-9.20Q101.25-9.06 101.22-8.88L101.22-8.88L101.22-8.88Q101.18-8.70 100.29-7.26L100.29-7.26L100.29-7.26Q99.17-5.31 98.43-3.97L98.43-3.97L98.43-3.97Q95.84 0.86 94.46 2.66L94.46 2.66L94.46 2.66Q91.52 6.56 88.86 6.56L88.86 6.56L88.86 6.56Q87.94 6.56 87.25 5.78L87.25 5.78L87.25 5.78Q86.56 4.99 86.53 4.03L86.53 4.03L86.53 4.03Q86.62 3.65 86.82 3.65L86.82 3.65L86.82 3.65Q86.91 3.65 86.98 3.87L86.98 3.87L86.98 3.87Q87.14 4.70 87.58 5.15L87.58 5.15L87.58 5.15Q88.03 5.60 88.48 5.60L88.48 5.60L88.48 5.60Q90.30 5.60 92.38 3.20L92.38 3.20L92.38 3.20Q93.76 1.60 95.42-1.47L95.42-1.47L97.02-4.64L94.62-2.21L94.62-2.21Q92.32 0 91.47 0L91.47 0L91.47 0Q90.62 0 89.86-0.58L89.86-0.58L89.86-0.58Q88.99-1.22 88.99-2.27L88.99-2.27L88.99-2.27Q88.99-4.61 92.27-7.84L92.27-7.84L92.27-7.84Q95.55-11.07 98.24-11.07L98.24-11.07L98.24-11.07Q99.33-11.07 99.65-10.37L99.65-10.37L99.65-10.37Q99.74-10.11 99.81-9.94L99.81-9.94L99.81-9.94Q99.87-9.76 99.90-9.76ZM90.34-1.89L90.34-1.89L90.34-1.89Q90.34-0.74 91.14-0.74L91.14-0.74L91.14-0.74Q92.99-0.74 96.19-4.80L96.19-4.80L99.58-9.47L99.58-9.47Q99.39-9.92 98.78-9.92L98.78-9.92L98.78-9.92Q96.80-9.92 93.57-6.86L93.57-6.86L93.57-6.86Q90.34-3.81 90.34-1.89ZM125.70-6.05L125.70-6.05L125.70-6.05Q125.70-4.90 125.18-3.87L125.18-3.87L125.18-3.87Q124.10-1.57 121.02-0.03L121.02-0.03L121.02-0.03Q117.95 1.50 114.62 1.50L114.62 1.50L114.62 1.50Q109.57 1.50 107.74-1.95L107.74-1.95L107.74-1.95Q104.45 0.80 103.04 0.80L103.04 0.80L103.04 0.80Q102.78 0.80 102.59 0.70L102.59 0.70L102.59 0.70Q101.63 0.19 101.63-1.50L101.63-1.50L101.63-1.50Q101.63-3.20 103.04-5.66L103.04-5.66L103.04-5.66Q104.45-8.13 105.50-8.58L105.50-8.58L105.50-8.58Q105.98-8.74 106.24-8.74L106.24-8.74L106.24-8.74Q107.17-8.74 107.65-7.20L107.65-7.20L108.61-4.13L108.61-4.13Q109.54-5.12 111.14-7.30L111.14-7.30L113.98-11.14L113.98-11.14Q119.23-17.95 120.86-18.59L120.86-18.59L120.86-18.59Q121.44-18.82 122.05-18.82L122.05-18.82L122.05-18.82Q122.66-18.82 123.06-18.56L123.06-18.56L123.06-18.56Q123.46-18.30 123.46-17.92L123.46-17.92L123.46-17.92Q123.46-17.34 122.53-17.25L122.53-17.25L122.53-17.25Q121.57-16.70 118.86-14.06L118.86-14.06L118.86-14.06Q116.16-11.42 115.65-10.72L115.65-10.72L115.65-10.72Q112.06-5.73 109.02-3.04L109.02-3.04L109.02-3.04Q110.98 0.83 114.88 0.83L114.88 0.83L114.88 0.83Q117.25 0.83 119.58-0.66L119.58-0.66L119.58-0.66Q121.92-2.14 123.07-4.32L123.07-4.32L123.07-4.32Q123.58-5.25 123.58-6.40L123.58-6.40L123.58-6.40Q123.58-7.55 122.67-8.59L122.67-8.59L122.67-8.59Q121.76-9.63 120.38-10.11L120.38-10.11L120.38-10.11Q119.74-10.21 118.34-10.38L118.34-10.38L118.34-10.38Q116.93-10.56 116.93-10.98L116.93-10.98L116.93-10.98Q116.93-11.14 117.06-11.26L117.06-11.26L117.06-11.26Q117.44-11.71 118.05-11.71L118.05-11.71L118.05-11.71Q118.40-11.71 118.74-11.58L118.74-11.58L118.74-11.58Q119.07-11.46 119.26-11.39L119.26-11.39L119.26-11.39Q119.46-11.33 119.71-11.23L119.71-11.23L119.71-11.23Q120.42-11.17 120.93-11.17L120.93-11.17L120.93-11.17Q123.04-11.17 124.77-11.84L124.77-11.84L124.77-11.84Q126.98-12.70 127.58-14.43L127.58-14.43L127.58-14.43Q127.97-15.55 127.97-16.45L127.97-16.45L127.97-16.45Q127.97-18.66 125.82-19.74L125.82-19.74L125.82-19.74Q123.97-20.70 120.74-20.70L120.74-20.70L120.74-20.70Q115.65-20.70 111.62-18.78L111.62-18.78L111.62-18.78Q109.57-17.82 107.73-15.94L107.73-15.94L107.73-15.94Q105.89-14.05 105.89-12.70L105.89-12.70L105.89-12.70Q105.89-11.78 106.37-11.17L106.37-11.17L106.37-11.17Q106.56-10.91 107.04-10.53L107.04-10.53L107.04-10.53Q107.20-10.43 106.85-10.43L106.85-10.43L106.85-10.43Q104.86-10.88 104.86-13.09L104.86-13.09L104.86-13.09Q104.86-15.30 107.10-17.25L107.10-17.25L107.10-17.25Q108.77-18.69 110.85-19.58L110.85-19.58L110.85-19.58Q115.17-21.44 120.67-21.44L120.67-21.44L120.67-21.44Q124.61-21.44 126.94-20.29L126.94-20.29L126.94-20.29Q129.66-19.01 129.66-16.42L129.66-16.42L129.66-16.42Q129.66-15.39 129.25-14.34L129.25-14.34L129.25-14.34Q128.58-12.42 125.76-11.42L125.76-11.42L125.76-11.42Q123.65-10.69 121.22-10.66L121.22-10.66L121.22-10.66Q123.10-10.56 124.40-9.26L124.40-9.26L124.40-9.26Q125.70-7.97 125.70-6.05ZM105.25-7.23L105.25-7.23L105.25-7.23Q105.22-7.23 105.09-7.17L105.09-7.17L105.09-7.17Q102.72-3.74 102.72-1.66L102.72-1.66L102.72-1.66Q102.72-0.80 103.14-0.10L103.14-0.10L103.14-0.10Q103.23 0.06 103.46 0.06L103.46 0.06L103.46 0.06Q104.48 0.06 107.39-2.85L107.39-2.85L107.30-2.98L107.30-2.98Q106.02-7.23 105.25-7.23ZM137.89-9.57L137.89-9.57L138.34-9.66L138.34-9.66Q138.69-9.66 139.01-9.38L139.01-9.38L139.01-9.38Q139.33-9.09 139.33-8.93L139.33-8.93L139.33-8.93Q139.33-8.77 137.34-5.84L137.34-5.84L137.34-5.84Q135.36-2.91 135.36-1.76L135.36-1.76L135.36-1.76Q135.36-1.66 135.39-1.57L135.39-1.57L135.39-1.57Q135.55-0.83 136.10-0.83L136.10-0.83L136.10-0.83Q137.76-0.83 142.18-6.34L142.18-6.34L142.18-6.34Q142.27-6.46 142.40-6.46L142.40-6.46L142.40-6.46Q142.53-6.46 142.53-6.22L142.53-6.22L142.53-6.22Q142.53-5.98 142.24-5.60L142.24-5.60L142.24-5.60Q138.14-0.13 136-0.13L136-0.13L136-0.13Q135.71-0.13 135.46-0.22L135.46-0.22L135.46-0.22Q134.05-0.77 134.05-2.34L134.05-2.34L134.05-2.34Q134.05-2.88 134.18-3.42L134.18-3.42L132.19-1.50L132.19-1.50Q130.30 0.16 129.46 0.16L129.46 0.16L129.46 0.16Q128.61 0.16 127.84-0.38L127.84-0.38L127.84-0.38Q126.98-1.02 126.98-2.08L126.98-2.08L126.98-2.08Q126.98-4.42 130.24-7.66L130.24-7.66L130.24-7.66Q133.50-10.91 136.22-10.91L136.22-10.91L136.22-10.91Q137.28-10.91 137.63-10.18L137.63-10.18L137.63-10.18Q137.73-9.92 137.79-9.74L137.79-9.74L137.79-9.74Q137.86-9.57 137.89-9.57ZM128.32-1.70L128.32-1.70L128.32-1.70Q128.32-0.54 129.12-0.54L129.12-0.54L129.12-0.54Q130.98-0.54 134.18-4.61L134.18-4.61L137.57-9.28L137.57-9.28Q137.31-9.73 136.74-9.73L136.74-9.73L136.74-9.73Q134.78-9.73 131.55-6.70L131.55-6.70L131.55-6.70Q128.32-3.68 128.32-1.70ZM138.66 3.71L138.66 3.71L138.66 3.71Q140.19 5.63 141.31 5.63L141.31 5.63L141.31 5.63Q143.14 5.63 145.25 2.72L145.25 2.72L145.25 2.72Q146.78 0.58 148.26-2.69L148.26-2.69L149.47-5.63L144.77-1.95L144.77-1.95Q142.59-0.26 141.28-0.26L141.28-0.26L141.28-0.26Q140.58-0.26 140.16-0.74L140.16-0.74L140.16-0.74Q139.74-1.22 139.74-1.82L139.74-1.82L139.74-1.82Q139.74-3.20 142.11-6.35L142.11-6.35L142.11-6.35Q144.48-9.50 145.57-9.50L145.57-9.50L145.57-9.50Q146.66-9.50 146.66-8.77L146.66-8.77L146.66-8.77Q146.66-8.48 143.82-5.46L143.82-5.46L143.82-5.46Q140.99-2.43 140.99-1.38L140.99-1.38L140.99-1.38Q140.99-0.96 141.54-0.96L141.54-0.96L141.54-0.96Q142.56-0.96 145.65-3.36L145.65-3.36L145.65-3.36Q148.74-5.76 150.30-7.33L150.30-7.33L150.30-7.33Q150.66-7.74 151.30-8.58L151.30-8.58L151.30-8.58Q151.90-9.28 152.64-9.28L152.64-9.28L152.64-9.28Q153.38-9.28 153.38-8.58L153.38-8.58L153.38-8.58Q153.38-8.45 151.94-6.30L151.94-6.30L151.94-6.30Q150.50-4.16 150.43-4.03L150.43-4.03L150.43-4.03Q149.44-2.11 147.39 1.57L147.39 1.57L147.39 1.57Q144.29 6.56 141.18 6.56L141.18 6.56L141.18 6.56Q140.16 6.56 139.39 5.68L139.39 5.68L139.39 5.68Q138.62 4.80 138.66 3.71Z" fill="#ccc"/></g></g><style>text {
  font-size: 64px;
  font-family: Arial Black;
  dominant-baseline: central;
  text-anchor: middle;
}</style></svg>